<svg width="38" height="23" viewBox="0 0 38 23" fill="none" xmlns="http://www.w3.org/2000/svg">
<path d="M11.456 22.4639L6.78399 13.9839H5.47199V22.4639H-8.70228e-06V-0.000133514H9.18399C10.9547 -0.000133514 12.4587 0.3092 13.696 0.927866C14.9547 1.54653 15.8933 2.39987 16.512 3.48787C17.1307 4.55453 17.44 5.7492 17.44 7.07187C17.44 8.5652 17.0133 9.89853 16.16 11.0719C15.328 12.2452 14.0907 13.0772 12.448 13.5679L17.632 22.4639H11.456ZM5.47199 10.1119H8.86399C9.86666 10.1119 10.6133 9.86653 11.104 9.37587C11.616 8.8852 11.872 8.19187 11.872 7.29587C11.872 6.44253 11.616 5.77053 11.104 5.27987C10.6133 4.7892 9.86666 4.54387 8.86399 4.54387H5.47199V10.1119ZM37.035 -0.000133514V4.38387H31.083V22.4639H25.611V4.38387H19.659V-0.000133514H37.035Z" fill="#FF5A5F"/>
</svg>
